<svg width="370" height="80" viewBox="0 0 370 80" fill="none" xmlns="http://www.w3.org/2000/svg">
<rect width="370" height="80" fill="#E3DEDD"/>
<path d="M82.0935 21.216C81.6778 20.5093 80.8775 20.0312 79.6927 19.7817C79.6719 19.7817 77.4581 19.4907 73.0512 18.9087C69.6214 18.4514 66.8255 18.5969 64.6637 19.3452C63.8114 19.6362 63.0007 20.0312 62.2316 20.5301C61.9406 20.7379 61.6288 20.977 61.2962 21.2472C61.0883 21.4135 60.8181 21.6422 60.4855 21.9332C59.9035 22.4321 59.4254 23.0453 59.0512 23.7728C58.8849 24.0638 58.729 24.386 58.5835 24.7394C58.4796 24.9889 58.3549 25.3111 58.2094 25.706C57.0245 29.0319 56.3074 34.343 56.0579 41.6392C55.954 44.2376 55.9124 47.1062 55.9332 50.245C55.954 51.3883 55.9748 52.6147 55.9955 53.9243C55.9955 54.4024 56.0059 54.922 56.0267 55.4833L56.0579 56.2004V56.8552C56.1203 59.4536 56.6607 61.2725 57.6793 62.3118C58.3653 63.0186 59.3111 63.4031 60.5167 63.4655C60.9532 63.4863 61.5664 63.4655 62.3563 63.4031L62.8552 63.3719L63.4165 63.3408C63.853 63.32 64.2376 63.2992 64.5702 63.2784C65.4224 63.2368 66.15 62.9458 66.7528 62.4053C67.709 61.5531 68.1039 60.5137 67.9376 59.2873C67.8337 58.5598 67.7402 57.6036 67.657 56.4187C67.5531 55.0676 67.4907 53.7788 67.4699 52.5523C67.3868 49.3096 67.5635 47.4491 68 46.971L68.0312 46.9087L68.0935 46.8463C68.1559 46.8047 68.2183 46.7528 68.2806 46.6904C68.4677 46.5657 68.7068 46.4514 68.9978 46.3474C69.8085 46.0564 70.9829 45.8589 72.5212 45.755C73.4358 45.6926 74.3088 45.6823 75.1403 45.7238C75.4313 45.7238 75.7535 45.7342 76.1069 45.755L76.5123 45.7862L76.8552 45.8174C77.7907 45.8797 78.4558 45.7342 78.8508 45.3808C79.7446 44.6117 80.2019 43.3437 80.2227 41.5768C80.2643 39.7892 79.8486 38.4796 78.9755 37.6481C78.5598 37.2739 77.9258 37.0661 77.0735 37.0245C76.4915 36.9829 75.369 37.0349 73.706 37.1804C72.9577 37.2428 72.2198 37.3363 71.4922 37.461L71.0869 37.5234L70.7127 37.5857C70.4009 37.6273 70.1826 37.6585 70.0579 37.6793C69.3304 37.804 68.7899 37.7209 68.4365 37.4298C67.7298 36.8478 67.3452 35.8604 67.2829 34.4677C67.2205 33.075 67.4907 31.8485 68.0935 30.7884C68.1351 30.7261 68.1767 30.6637 68.2183 30.6013C68.2598 30.5182 68.3118 30.435 68.3742 30.3519C68.5197 30.1648 68.6756 29.9777 68.8419 29.7906C69.32 29.3125 69.902 28.9176 70.588 28.6058C71.565 28.1485 72.6043 27.951 73.706 28.0134C74.4128 28.0757 75.3274 28.2836 76.4499 28.637L77.0735 28.8552L77.6659 29.0423C78.1232 29.167 78.5078 29.2502 78.8196 29.2918C79.6511 29.3957 80.3474 29.2502 80.9087 28.8552C81.8441 28.1693 82.4365 27.0052 82.686 25.363C82.9354 23.7209 82.7379 22.3385 82.0935 21.216ZM96.8107 28.3252C96.8731 28.2836 96.9146 28.2628 96.9354 28.2628L96.8107 28.3252ZM87.176 25.1448C87.3215 24.7498 87.4462 24.438 87.5501 24.2093C87.7164 23.856 87.8827 23.5442 88.049 23.2739C88.444 22.5672 88.9428 21.9747 89.5457 21.4967L90.3875 20.8107C90.7409 20.5197 91.0319 20.291 91.2606 20.1247C91.9881 19.5843 92.7365 19.1685 93.5056 18.8775C95.5427 18.0668 98.3385 17.8693 101.893 18.2851C106.529 18.8671 108.857 19.1581 108.878 19.1581C110.125 19.3868 110.967 19.8545 111.403 20.5612C112.068 21.6214 112.276 22.9413 112.027 24.5211C111.757 26.101 111.133 27.2235 110.156 27.8886C109.553 28.2836 108.826 28.4291 107.973 28.3252C107.641 28.2836 107.235 28.2004 106.757 28.0757L106.102 27.8886L105.448 27.7016C104.284 27.3482 103.317 27.1507 102.548 27.1091C101.405 27.026 100.313 27.2027 99.274 27.6392C98.5672 27.951 97.9644 28.3459 97.4655 28.824C97.2784 28.9903 97.1121 29.167 96.9666 29.3541C96.9042 29.4165 96.8419 29.4892 96.7795 29.5724C96.7587 29.6347 96.7276 29.6971 96.686 29.7595C96.0208 30.778 95.7298 31.9629 95.8129 33.314C95.8753 34.6444 96.2806 35.5902 97.029 36.1514C97.4031 36.4217 97.9748 36.5048 98.7439 36.4009C98.8686 36.3801 99.0869 36.3489 99.3987 36.3073L99.804 36.245L100.241 36.1826C101.01 36.0579 101.789 35.9748 102.579 35.9332C104.346 35.7877 105.531 35.7253 106.134 35.7461C107.027 35.8085 107.682 36.0163 108.098 36.3697C109.033 37.1804 109.48 38.438 109.439 40.1425C109.418 41.8678 108.94 43.0943 108.004 43.8218C107.568 44.1752 106.872 44.3207 105.915 44.2583L105.51 44.2272L105.105 44.196C104.731 44.1752 104.398 44.1544 104.107 44.1336C103.213 44.1128 102.288 44.1336 101.332 44.196C99.7105 44.2999 98.4737 44.487 97.6214 44.7572C97.3096 44.8612 97.0601 44.9755 96.8731 45.1002C96.8107 45.1418 96.7483 45.1938 96.686 45.2561L96.6236 45.2873L96.5613 45.3497C95.8337 46.098 95.4284 47.1062 95.3452 48.3742C95.2829 49.6422 95.5739 50.6503 96.2183 51.3987C96.5924 51.8352 97.1849 52.1158 97.9956 52.2405C98.536 52.3029 99.9807 52.3756 102.33 52.4588C105.739 52.5627 107.921 52.6771 108.878 52.8018C109.771 52.9265 110.343 53.1552 110.592 53.4877C111.237 54.3608 111.278 55.6496 110.717 57.3541C110.156 59.1002 109.21 60.4514 107.88 61.4076C107.152 61.948 106.362 62.2494 105.51 62.3118C104.928 62.3326 104.013 62.2183 102.766 61.9688L102.361 61.9065L101.924 61.8129C101.571 61.7298 101.259 61.6674 100.989 61.6258C100.241 61.4803 99.5234 61.366 98.8374 61.2829C96.9666 61.0542 95.0022 60.9814 92.9443 61.0646C92.591 61.0854 92.1856 61.1062 91.7283 61.1269L91.167 61.1581L90.6058 61.2205C89.7951 61.2621 89.1507 61.2725 88.6726 61.2517C87.4046 61.1893 86.4172 60.8151 85.7105 60.1292C84.6296 59.1314 84.0579 57.3853 83.9956 54.8909C83.954 53.0408 83.9644 50.931 84.0267 48.5612C84.0891 45.7342 84.2242 43.0007 84.4321 40.3608C84.9725 33.5011 85.8872 28.4291 87.176 25.1448ZM126.993 28.3252C127.056 28.2836 127.097 28.2628 127.118 28.2628L126.993 28.3252ZM117.359 25.1448C117.504 24.7498 117.629 24.438 117.733 24.2093C117.899 23.856 118.065 23.5442 118.232 23.2739C118.627 22.5672 119.125 21.9747 119.728 21.4967L120.57 20.8107C120.924 20.5197 121.215 20.291 121.443 20.1247C122.171 19.5843 122.919 19.1685 123.688 18.8775C125.725 18.0668 128.521 17.8693 132.076 18.2851C136.711 18.8671 139.039 19.1581 139.06 19.1581C140.307 19.3868 141.149 19.8545 141.586 20.5612C142.251 21.6214 142.459 22.9413 142.209 24.5211C141.939 26.101 141.316 27.2235 140.339 27.8886C139.736 28.2836 139.008 28.4291 138.156 28.3252C137.823 28.2836 137.418 28.2004 136.94 28.0757L136.285 27.8886L135.63 27.7016C134.466 27.3482 133.5 27.1507 132.731 27.1091C131.587 27.026 130.496 27.2027 129.457 27.6392C128.75 27.951 128.147 28.3459 127.648 28.824C127.461 28.9903 127.295 29.167 127.149 29.3541C127.087 29.4165 127.025 29.4892 126.962 29.5724C126.941 29.6347 126.91 29.6971 126.869 29.7595C126.203 30.778 125.912 31.9629 125.996 33.314C126.058 34.6444 126.463 35.5902 127.212 36.1514C127.586 36.4217 128.157 36.5048 128.927 36.4009C129.051 36.3801 129.27 36.3489 129.581 36.3073L129.987 36.245L130.423 36.1826C131.192 36.0579 131.972 35.9748 132.762 35.9332C134.529 35.7877 135.713 35.7253 136.316 35.7461C137.21 35.8085 137.865 36.0163 138.281 36.3697C139.216 37.1804 139.663 38.438 139.621 40.1425C139.601 41.8678 139.123 43.0943 138.187 43.8218C137.751 44.1752 137.054 44.3207 136.098 44.2583L135.693 44.2272L135.287 44.196C134.913 44.1752 134.581 44.1544 134.29 44.1336C133.396 44.1128 132.471 44.1336 131.514 44.196C129.893 44.2999 128.656 44.487 127.804 44.7572C127.492 44.8612 127.243 44.9755 127.056 45.1002C126.993 45.1418 126.931 45.1938 126.869 45.2561L126.806 45.2873L126.744 45.3497C126.016 46.098 125.611 47.1062 125.528 48.3742C125.465 49.6422 125.757 50.6503 126.401 51.3987C126.775 51.8352 127.367 52.1158 128.178 52.2405C128.719 52.3029 130.163 52.3756 132.512 52.4588C135.921 52.5627 138.104 52.6771 139.06 52.8018C139.954 52.9265 140.526 53.1552 140.775 53.4877C141.419 54.3608 141.461 55.6496 140.9 57.3541C140.339 59.1002 139.393 60.4514 138.062 61.4076C137.335 61.948 136.545 62.2494 135.693 62.3118C135.111 62.3326 134.196 62.2183 132.949 61.9688L132.543 61.9065L132.107 61.8129C131.754 61.7298 131.442 61.6674 131.172 61.6258C130.423 61.4803 129.706 61.366 129.02 61.2829C127.149 61.0542 125.185 60.9814 123.127 61.0646C122.774 61.0854 122.368 61.1062 121.911 61.1269L121.35 61.1581L120.788 61.2205C119.978 61.2621 119.333 61.2725 118.855 61.2517C117.587 61.1893 116.6 60.8151 115.893 60.1292C114.812 59.1314 114.241 57.3853 114.178 54.8909C114.137 53.0408 114.147 50.931 114.209 48.5612C114.272 45.7342 114.407 43.0007 114.615 40.3608C115.155 33.5011 116.07 28.4291 117.359 25.1448ZM145.296 28.824C145.338 31.6926 145.411 34.5612 145.514 37.4298C145.556 38.3653 145.598 39.2799 145.639 40.1737C145.66 40.4647 145.67 40.7454 145.67 41.0156C145.691 41.1195 145.702 41.2235 145.702 41.3274V41.4209V41.5145C145.847 44.4454 145.826 47.3348 145.639 50.1826C145.577 51.2012 145.483 52.2925 145.359 53.4566C145.317 53.8307 145.265 54.3088 145.203 54.8909L145.109 55.5457L145.047 56.1693C144.86 57.9569 144.818 59.2457 144.922 60.0356C145.068 61.0542 145.504 61.8649 146.232 62.4677C146.855 62.9458 147.822 63.1329 149.131 63.029L149.693 62.9666L150.316 62.9042C150.878 62.8627 151.397 62.8315 151.875 62.8107C153.289 62.7275 154.785 62.6964 156.365 62.7171C158.215 62.7587 160.065 62.8834 161.915 63.0913C162.477 63.1537 163.163 63.2368 163.973 63.3408L164.41 63.4031L164.846 63.4343C165.158 63.4759 165.418 63.5071 165.626 63.5278C167.663 63.7565 169.16 63.4863 170.116 62.7171C171.405 61.6778 172.215 60.1915 172.548 58.2584C172.88 56.3252 172.6 54.7454 171.706 53.5189C170.958 52.4796 169.669 51.7832 167.84 51.4298C167.174 51.2843 166.395 51.1908 165.501 51.1492C165.148 51.1284 164.763 51.118 164.347 51.118H163.319C162.445 51.118 161.562 51.17 160.668 51.2739C160.377 51.3155 160.034 51.3675 159.639 51.4298L159.172 51.5234L158.735 51.5857C157.571 51.7728 156.739 51.6585 156.241 51.2428C155.679 50.7854 155.388 49.9955 155.368 48.873C155.347 48.0208 155.503 46.5449 155.835 44.4454C156.168 42.4083 156.521 40.4647 156.895 38.6147C157.02 37.9495 157.166 37.2324 157.332 36.4632L157.55 35.5278L157.737 34.6236C158.278 32.15 158.579 30.092 158.641 28.4499L158.704 26.8285L158.735 25.2383C158.735 24.0534 158.673 23.0245 158.548 22.1514C158.215 19.9688 157.405 18.4618 156.116 17.6303C154.806 16.778 153.195 16.5598 151.283 16.9755C149.391 17.3704 147.884 18.2123 146.762 19.5011C146.076 20.3118 145.639 21.3719 145.452 22.6815C145.286 23.7624 145.234 25.8099 145.296 28.824ZM203.105 36.1203C202.585 35.85 202.252 35.3615 202.107 34.6548C202.003 34.1351 201.993 33.2725 202.076 32.0668L202.107 31.2249L202.169 30.3207C202.211 29.5932 202.232 28.928 202.232 28.3252C202.252 26.6206 202.149 24.9889 201.92 23.4298C201.587 21.268 201.005 19.8961 200.174 19.314C199.051 18.5449 197.544 18.2747 195.653 18.5033C193.74 18.732 192.254 19.3452 191.194 20.343C190.404 21.1121 189.967 22.1203 189.884 23.3675C189.843 24.0534 189.957 25.4462 190.227 27.5456C191.059 34.343 191.464 41.6184 191.443 49.3719C191.443 51.1388 191.381 53.0928 191.256 55.2339L191.194 55.8575L191.163 56.4187C191.142 56.8968 191.121 57.2502 191.1 57.4788C191.059 58.248 191.038 58.8612 191.038 59.3185C191.017 60.5033 191.111 61.4284 191.319 62.0935C191.568 62.8419 192.015 63.4759 192.659 63.9955C194.322 65.3259 196.557 65.8248 199.363 65.4922C202.128 65.1804 204.113 64.2346 205.319 62.6548C205.901 61.8857 206.15 60.7112 206.067 59.1314C206.025 58.0297 205.734 55.9094 205.194 52.7706C204.986 51.4818 204.747 50.2242 204.477 48.9978C204.435 48.8107 204.383 48.5924 204.321 48.343L204.258 48.0624L204.196 47.8129C204.092 47.418 204.03 47.1269 204.009 46.9399C203.863 46.15 204.061 45.4016 204.601 44.6949C205.433 43.5932 206.732 42.8552 208.499 42.4811C210.245 42.1277 211.534 42.294 212.365 42.98C212.885 43.4165 213.093 44.3311 212.989 45.7238C212.947 46.1188 212.854 46.971 212.708 48.2806C212.625 48.925 212.552 49.4655 212.49 49.902C212.428 50.5672 212.365 51.2116 212.303 51.8352C212.261 52.3964 212.199 52.9681 212.116 53.5501L212.022 54.2673L211.96 54.8909C211.814 55.8263 211.742 56.4603 211.742 56.7929C211.721 57.7075 212.137 58.6221 212.989 59.5367C213.945 60.5553 215.244 61.2413 216.886 61.5947C217.427 61.7194 217.978 61.8025 218.539 61.8441C218.726 61.8441 218.913 61.8545 219.1 61.8753H219.287L219.443 61.8441H219.474H219.506C219.568 61.8441 219.63 61.8441 219.693 61.8441C219.88 61.8233 220.077 61.8025 220.285 61.7817C220.93 61.6986 221.553 61.5739 222.156 61.4076C223.985 60.8671 225.284 59.9941 226.053 58.7884C226.76 57.6659 226.864 56.1901 226.365 54.3608C226.199 53.7788 225.877 52.8434 225.399 51.5546L225.118 50.7439L224.806 49.902C224.578 49.2576 224.37 48.6444 224.183 48.0624C223.517 45.9005 222.873 41.7743 222.249 35.6837C222.021 33.4387 221.886 31.069 221.844 28.5746C221.844 28.1381 221.844 27.66 221.844 27.1403V26.4543V25.8307C221.844 24.8122 221.844 24.0431 221.844 23.5234C221.782 22.0059 221.605 20.8419 221.314 20.0312C220.961 19.0542 220.337 18.2331 219.443 17.5679L219.35 17.5056L219.256 17.412C219.131 17.3497 219.017 17.2769 218.913 17.1938C218.581 16.9859 218.238 16.8092 217.884 16.6637C216.824 16.1856 215.774 15.9881 214.735 16.0713C213.592 16.1336 212.48 16.5078 211.399 17.1938C210.38 17.8174 209.59 18.5657 209.029 19.4387C208.239 20.6652 207.958 22.1514 208.187 23.8975C208.333 25.0616 208.78 26.5998 209.528 28.5122L209.964 29.6036C210.151 30.0401 210.297 30.3831 210.401 30.6325C210.692 31.4016 210.889 32.0356 210.993 32.5345C211.284 33.8025 211.097 34.6964 210.432 35.216C210.037 35.507 209.133 35.7877 207.719 36.0579L207.221 36.1514L206.628 36.2762C206.171 36.3385 205.755 36.3905 205.381 36.4321C204.383 36.4944 203.624 36.3905 203.105 36.1203ZM248.223 41.2027C247.454 41.7431 246.352 42.1069 244.918 42.294C243.379 42.5019 242.35 42.3356 241.831 41.7951C241.477 41.4417 241.342 40.4959 241.425 38.9577C241.509 37.5234 241.758 35.9748 242.174 34.3118C242.631 32.5449 243.151 31.173 243.733 30.196C244.398 29.0735 245.053 28.6889 245.697 29.0423C245.988 29.2086 246.227 29.5204 246.414 29.9777C246.477 30.1648 246.581 30.4662 246.726 30.882L246.82 31.1626L246.913 31.4432C246.996 31.7134 247.079 31.9525 247.163 32.1603C247.911 34.3222 248.389 36.2866 248.597 38.0534C248.805 39.8203 248.68 40.8701 248.223 41.2027ZM255.363 28.824L255.207 28.1693C255.062 27.6704 254.937 27.2338 254.833 26.8597C254.521 25.8203 254.199 24.9161 253.866 24.147C252.931 22.0891 251.663 20.5716 250.062 19.5946C248.794 18.784 247.35 18.2955 245.728 18.1292C244.024 17.9421 242.465 18.1603 241.051 18.784C239.97 19.2205 239.128 19.8753 238.526 20.7483C238.006 21.4967 237.476 22.6815 236.935 24.3029C236.79 24.7602 236.52 25.6125 236.125 26.8597C235.938 27.4625 235.782 27.9614 235.657 28.3563C235.47 28.9592 235.293 29.5204 235.127 30.0401C234.15 32.9295 233.059 35.7981 231.853 38.6459C229.068 45.2353 227.082 52.1782 225.898 59.4744L225.866 59.6615L225.835 59.9109C225.814 60.1188 225.804 60.3267 225.804 60.5345C225.825 61.1166 225.939 61.6674 226.147 62.1871C226.625 63.268 227.54 64.1203 228.891 64.7439C230.034 65.2635 231.25 65.5338 232.539 65.5546C234.015 65.5754 235.439 65.2324 236.811 64.5256C238.266 63.7773 239.316 62.7691 239.96 61.5011C240.313 60.8151 240.625 57.8426 240.895 52.5835C240.999 50.588 241.228 49.3719 241.581 48.9354C242.371 47.8961 243.639 47.3244 245.385 47.2205C247.152 47.1166 248.535 47.5531 249.532 48.5301C250.114 49.0705 250.468 50.0475 250.592 51.461L250.624 51.9599L250.686 52.4588C250.728 52.8745 250.78 53.2695 250.842 53.6437C251.008 54.6206 251.289 55.6184 251.684 56.637C252.64 59.173 253.659 60.7944 254.739 61.5011C256.153 62.4157 257.93 62.7068 260.071 62.3742C262.254 62.0208 263.886 61.1477 264.967 59.755C265.777 58.6741 266.027 57.3645 265.715 55.8263C265.466 54.683 264.717 52.8122 263.47 50.2138L263.065 49.3408L262.628 48.4365C262.275 47.6882 261.963 47.023 261.693 46.441C260.924 44.8196 260.238 43.2814 259.635 41.8263C257.993 37.8352 256.621 33.709 255.519 29.4477L255.363 28.824ZM275.88 26.735C276.129 26.4855 276.618 26.392 277.345 26.4543C278.073 26.5167 278.832 26.7142 279.621 27.0468C281.617 27.9198 282.687 29.1462 282.833 30.7261C282.916 31.6823 282.625 32.6384 281.96 33.5946C281.357 34.4677 280.619 35.1329 279.746 35.5902L279.559 35.6837L279.341 35.8085C279.195 35.8708 279.05 35.9228 278.904 35.9644C278.572 36.0683 278.281 36.0683 278.031 35.9644C277.678 35.8189 277.46 35.3823 277.376 34.6548C277.376 34.5093 277.366 34.3326 277.345 34.1247L277.314 33.5323C277.293 32.971 277.262 32.5033 277.221 32.1292C277.117 31.3185 276.961 30.5598 276.753 29.853C276.67 29.562 276.566 29.271 276.441 28.9799C276.379 28.7929 276.285 28.5642 276.16 28.294C275.786 27.4417 275.693 26.922 275.88 26.735ZM292.78 23.7416C291.99 21.8708 290.493 20.4053 288.29 19.3452C287.458 18.9503 286.502 18.5969 285.421 18.2851C285.005 18.1603 284.548 18.0356 284.049 17.9109L283.394 17.755L282.771 17.6303C279.154 16.8196 275.568 16.7572 272.013 17.4432C268.022 18.2331 265.58 19.8129 264.686 22.1826C264.333 23.118 264.405 24.5939 264.904 26.6102L264.998 26.9844L265.123 27.3897C265.185 27.6808 265.247 27.9614 265.31 28.2316C265.476 28.9176 265.621 29.5932 265.746 30.2583C266.058 32.0044 266.297 33.8961 266.463 35.9332C266.526 36.9102 266.567 37.856 266.588 38.7706V39.363V39.9555C266.609 40.4543 266.619 40.9532 266.619 41.4521L266.682 42.9488L266.775 44.539C266.817 45.7446 266.879 46.8463 266.962 47.8441C267.149 50.3801 267.43 52.5835 267.804 54.4543C268.76 59.3601 270.434 62.4261 272.824 63.6526C274.487 64.5048 276.379 64.5984 278.499 63.9332C280.557 63.2888 281.856 62.2702 282.396 60.8775C282.584 60.3786 282.573 59.7238 282.365 58.9131C282.261 58.5182 281.752 56.9176 280.837 54.1114C280.006 51.6585 279.673 49.0705 279.84 46.3474C280.879 46.098 282.739 45.1418 285.421 43.4788C286.44 42.8552 287.385 42.242 288.258 41.6392C289.09 41.0572 289.589 40.6726 289.755 40.4855C292.146 37.9495 293.517 34.9874 293.871 31.5991C294.183 28.8137 293.819 26.1945 292.78 23.7416ZM306.873 26.735C307.123 26.4855 307.611 26.392 308.339 26.4543C309.066 26.5167 309.825 26.7142 310.615 27.0468C312.61 27.9198 313.681 29.1462 313.826 30.7261C313.909 31.6823 313.618 32.6384 312.953 33.5946C312.35 34.4677 311.613 35.1329 310.739 35.5902L310.552 35.6837L310.334 35.8085C310.189 35.8708 310.043 35.9228 309.898 35.9644C309.565 36.0683 309.274 36.0683 309.025 35.9644C308.671 35.8189 308.453 35.3823 308.37 34.6548C308.37 34.5093 308.359 34.3326 308.339 34.1247L308.307 33.5323C308.287 32.971 308.255 32.5033 308.214 32.1292C308.11 31.3185 307.954 30.5598 307.746 29.853C307.663 29.562 307.559 29.271 307.434 28.9799C307.372 28.7929 307.278 28.5642 307.154 28.294C306.78 27.4417 306.686 26.922 306.873 26.735ZM323.773 23.7416C322.983 21.8708 321.486 20.4053 319.283 19.3452C318.451 18.9503 317.495 18.5969 316.414 18.2851C315.999 18.1603 315.541 18.0356 315.042 17.9109L314.388 17.755L313.764 17.6303C310.147 16.8196 306.561 16.7572 303.007 17.4432C299.016 18.2331 296.573 19.8129 295.679 22.1826C295.326 23.118 295.399 24.5939 295.898 26.6102L295.991 26.9844L296.116 27.3897C296.178 27.6808 296.241 27.9614 296.303 28.2316C296.469 28.9176 296.615 29.5932 296.739 30.2583C297.051 32.0044 297.29 33.8961 297.457 35.9332C297.519 36.9102 297.561 37.856 297.581 38.7706V39.363V39.9555C297.602 40.4543 297.613 40.9532 297.613 41.4521L297.675 42.9488L297.768 44.539C297.81 45.7446 297.872 46.8463 297.956 47.8441C298.143 50.3801 298.423 52.5835 298.797 54.4543C299.754 59.3601 301.427 62.4261 303.817 63.6526C305.48 64.5048 307.372 64.5984 309.492 63.9332C311.55 63.2888 312.849 62.2702 313.39 60.8775C313.577 60.3786 313.567 59.7238 313.359 58.9131C313.255 58.5182 312.745 56.9176 311.831 54.1114C310.999 51.6585 310.667 49.0705 310.833 46.3474C311.872 46.098 313.733 45.1418 316.414 43.4788C317.433 42.8552 318.379 42.242 319.252 41.6392C320.083 41.0572 320.582 40.6726 320.748 40.4855C323.139 37.9495 324.511 34.9874 324.864 31.5991C325.176 28.8137 324.812 26.1945 323.773 23.7416ZM361.688 19.4699C360.628 18.3059 358.529 17.5056 355.39 17.069C352.313 16.6325 349.923 16.778 348.218 17.5056C347.699 17.7342 347.314 18.0044 347.065 18.3162C346.566 18.9814 346.264 19.8233 346.16 20.8419C346.14 21.1952 346.14 21.5694 346.16 21.9644C346.181 22.1099 346.192 22.2554 346.192 22.4009L346.223 22.5568L346.285 22.6815C346.618 25.072 346.42 28.3356 345.693 32.4722C344.924 36.6503 344.134 38.781 343.323 38.8641C342.949 38.9057 342.429 38.4172 341.764 37.3987C341.12 36.3593 340.517 35.0913 339.956 33.5946C338.563 29.7699 338.189 26.6518 338.833 24.2405L338.895 24.1158L338.927 23.8975C338.968 23.752 338.999 23.6065 339.02 23.461C339.103 23.0453 339.145 22.6399 339.145 22.245C339.207 21.1225 339.01 20.1559 338.552 19.3452C338.345 18.971 337.981 18.6384 337.461 18.3474C336.152 17.5991 334.343 17.1626 332.036 17.0379C329.666 16.9339 327.826 17.2041 326.517 17.8485C325.54 18.3266 325.166 19.1685 325.394 20.3742C325.457 20.7691 326.153 22.8894 327.483 26.735C327.878 27.8782 328.699 29.7283 329.947 32.2851C330.321 33.0542 330.892 34.2079 331.662 35.7461L332.597 37.5546L333.47 39.3942C336.422 45.4432 337.752 48.9978 337.461 50.0579C336.484 53.5501 335.912 55.9406 335.746 57.2294C335.455 59.2249 335.642 60.7008 336.307 61.657C336.889 62.4677 337.866 63.0601 339.238 63.4343C340.527 63.7669 341.951 63.8708 343.51 63.7461C345.09 63.6214 346.503 63.268 347.751 62.686C349.102 62.0624 350.027 61.2621 350.526 60.2851C350.983 59.4536 350.962 58.2999 350.463 56.8241L350.307 56.294L350.089 55.7016C349.902 55.2027 349.757 54.7454 349.653 54.3296C349.278 53.124 348.998 51.8872 348.811 50.6192C348.333 47.7506 349.559 43.51 352.49 37.8975C353.529 35.8812 354.735 33.8025 356.107 31.6615C357.146 30.0609 358.092 28.6785 358.944 27.5145C361.958 23.461 362.873 20.7795 361.688 19.4699Z" fill="#2E514C"/>
<path d="M27.0312 18C19.125 18 14.1797 19.7656 11.1875 21.5938C9.69141 22.5078 8.69531 23.4414 8.0625 24.1562C7.42969 24.8711 7.125 25.4375 7.125 25.4375L7 25.6562V25.9062C7 43.1758 11.8203 52.9844 16.75 58.4375C21.6797 63.8906 26.8125 64.9688 26.8125 64.9688L27 65L27.2188 64.9688C27.2188 64.9688 32.3242 63.8242 37.25 58.3438C42.1758 52.8633 47 43.0547 47 25.9062V25.6562L46.875 25.4688C46.875 25.4688 46.5938 24.875 45.9688 24.1562C45.3438 23.4375 44.3633 22.5078 42.875 21.5938C39.9023 19.7617 34.9375 18 27.0312 18ZM27.0312 20C34.6445 20 39.1875 21.6641 41.8125 23.2812C43.125 24.0898 43.9648 24.8945 44.4688 25.4688C44.8594 25.918 44.9141 26.0547 44.9688 26.1562C44.918 42.7578 40.2969 51.9375 35.75 57C31.3359 61.9102 27.2617 62.8711 26.9688 62.9375C26.6367 62.8633 22.6367 61.9453 18.25 57.0938C13.7031 52.0664 9.08203 42.8789 9.03125 26.1562C9.08984 26.0547 9.13281 25.918 9.53125 25.4688C10.043 24.8906 10.8945 24.0898 12.2188 23.2812C14.8672 21.6641 19.418 20 27.0312 20ZM20 32C17.125 32 14 36 14 36C14 36 16.5898 36.1406 19.375 35.8438C22.1602 35.5469 25 35 25 35C25 35 22.3789 32 20 32ZM34 32C31.6211 32 29 35 29 35C29 35 31.8398 35.5469 34.625 35.8438C37.4102 36.1406 40 36 40 36C40 36 36.875 32 34 32ZM16.8125 42C16.5312 42.0508 16.2813 42.2187 16.1328 42.4648C15.9844 42.7109 15.9453 43.0078 16.0312 43.2812C16.0312 43.2812 16.8477 46.1172 18.5625 49C20.2773 51.8828 23.0117 55 27 55C30.9883 55 33.7227 51.8828 35.4375 49C37.1523 46.1172 37.9688 43.2812 37.9688 43.2812C38.0703 42.9258 37.9648 42.543 37.6953 42.2852C37.4258 42.0313 37.0391 41.9453 36.6875 42.0625C36.6875 42.0625 30.3438 44 27 44C23.6562 44 17.3125 42.0625 17.3125 42.0625C17.1836 42.0156 17.043 41.9922 16.9062 42C16.875 42 16.8438 42 16.8125 42ZM18.5938 44.4688C20.582 45.0547 24.0039 46 27 46C29.9961 46 33.418 45.0547 35.4062 44.4688C35.0234 45.4453 34.4766 46.7266 33.7188 48C32.1602 50.6172 29.9258 53 27 53C24.0742 53 21.8398 50.6172 20.2812 48C19.5234 46.7266 18.9766 45.4453 18.5938 44.4688Z" fill="black"/>
</svg>
